<?xml version="1.0" encoding="utf-8"?>
<!-- Generator: Adobe Illustrator 15.0.0, SVG Export Plug-In . SVG Version: 6.00 Build 0)  -->
<!DOCTYPE svg PUBLIC "-//W3C//DTD SVG 1.1//EN" "http://www.w3.org/Graphics/SVG/1.1/DTD/svg11.dtd">
<svg version="1.1" id="Layer_1" xmlns="http://www.w3.org/2000/svg" xmlns:xlink="http://www.w3.org/1999/xlink" x="0px" y="0px"
	 width="15px" height="15px" viewBox="92.5 92.5 15 15" enable-background="new 92.5 92.5 15 15" xml:space="preserve">
<g>
	<g>
		<path d="M100.003,101.353l-5.252-5.251c-0.145-0.145-0.337-0.224-0.543-0.224c-0.206,0-0.398,0.08-0.543,0.224l-0.46,0.46
			c-0.145,0.145-0.224,0.337-0.224,0.543c0,0.206,0.08,0.398,0.224,0.543l6.252,6.252c0.145,0.146,0.339,0.225,0.545,0.225
			c0.207,0,0.4-0.079,0.545-0.225l6.246-6.246c0.146-0.145,0.225-0.338,0.225-0.543c0-0.206-0.079-0.399-0.225-0.543l-0.46-0.46
			c-0.299-0.299-0.786-0.299-1.086,0L100.003,101.353z"/>
	</g>
</g>
</svg>
