<?xml version="1.0" encoding="utf-8"?>
<!-- Generator: Adobe Illustrator 26.0.3, SVG Export Plug-In . SVG Version: 6.00 Build 0)  -->
<svg version="1.1" id="Layer_1" xmlns="http://www.w3.org/2000/svg" xmlns:xlink="http://www.w3.org/1999/xlink" x="0px" y="0px"
	 viewBox="0 0 20 20" style="enable-background:new 0 0 20 20;" xml:space="preserve">
<style type="text/css">
	.st0{fill:#FFFFFF;}
</style>
<circle class="st0" cx="10" cy="10" r="10"/>
<path d="M16,15.3L16,15.3L16,15.3v-4c0-2-0.4-3.5-2.7-3.5c-1.1,0-1.9,0.6-2.2,1.2l0,0V8H8.9v7.3h2.3v-3.6c0-1,0.2-1.9,1.4-1.9
	s1.2,1.1,1.2,1.9v3.6C13.7,15.2,16,15.2,16,15.3z"/>
<path d="M5.2,7.9h2.3v7.3H5.2V7.9z"/>
<path d="M6.3,4.3C5.6,4.3,5,4.8,5,5.6c0,0.7,0.6,1.3,1.3,1.3s1.3-0.6,1.3-1.3C7.6,4.8,7,4.3,6.3,4.3z"/>
</svg>
