<?xml version="1.0" encoding="utf-8"?>
<!-- Generator: Adobe Illustrator 15.0.0, SVG Export Plug-In . SVG Version: 6.00 Build 0)  -->
<!DOCTYPE svg PUBLIC "-//W3C//DTD SVG 1.1//EN" "http://www.w3.org/Graphics/SVG/1.1/DTD/svg11.dtd">
<svg version="1.1" id="Layer_1" xmlns="http://www.w3.org/2000/svg" xmlns:xlink="http://www.w3.org/1999/xlink" x="0px" y="0px"
	 width="218px" height="174.333px" viewBox="0 0 218 174.333" enable-background="new 0 0 218 174.333" xml:space="preserve">
<g>
	<g>
		<path fill="#2D2D2D" d="M66.238,165.583c-0.212-0.226-0.503-0.428-0.86-0.578c-0.359-0.15-0.813-0.226-1.356-0.226h-2.55v8.047
			h1.145v-3.163h1.466c0.393,0,0.757-0.047,1.088-0.15c0.336-0.108,0.627-0.264,0.867-0.465c0.242-0.212,0.428-0.466,0.566-0.767
			c0.137-0.311,0.205-0.663,0.205-1.067c0-0.268-0.04-0.55-0.122-0.846C66.597,166.082,66.452,165.819,66.238,165.583z
			 M65.22,168.295c-0.27,0.254-0.655,0.376-1.151,0.376h-1.452v-2.899h1.452c0.482,0,0.86,0.132,1.145,0.39
			c0.275,0.259,0.414,0.616,0.414,1.081C65.626,167.69,65.493,168.042,65.22,168.295z M80.272,164.78h-1.156v8.047h5.352v-1.024
			h-4.195V164.78z M99.412,164.78l-3.147,8.047h1.22l0.834-2.242h3.304l0.832,2.242h1.295l-3.154-8.047H99.412z M98.655,169.607
			l1.314-3.534l1.302,3.534H98.655z M114.199,165.791h2.893v7.036h1.156v-7.036h2.877v-1.011h-6.926V165.791z M134.44,169.184h2.947
			v-1.039h-2.947v-2.341h3.911v-1.024h-5.076v8.047h5.367v-1.038h-4.202V169.184z M155.794,168.883
			c-0.226-0.188-0.479-0.348-0.762-0.465c-0.291-0.118-0.582-0.212-0.874-0.282c-0.31-0.075-0.583-0.15-0.822-0.23
			c-0.23-0.075-0.433-0.165-0.597-0.272c-0.16-0.108-0.282-0.235-0.367-0.376c-0.08-0.137-0.132-0.311-0.132-0.508
			c0-0.141,0.038-0.277,0.09-0.414c0.057-0.141,0.146-0.254,0.263-0.366c0.123-0.108,0.273-0.197,0.461-0.268
			c0.188-0.066,0.409-0.104,0.663-0.104c0.263,0,0.488,0.037,0.686,0.089c0.198,0.062,0.367,0.142,0.518,0.226
			c0.15,0.09,0.268,0.179,0.366,0.269c0.104,0.099,0.17,0.174,0.217,0.229l0.775-0.714c-0.065-0.075-0.155-0.188-0.277-0.315
			s-0.282-0.254-0.484-0.376c-0.197-0.117-0.446-0.221-0.724-0.301c-0.291-0.089-0.63-0.132-1.029-0.132
			c-0.442,0-0.832,0.062-1.171,0.188c-0.338,0.113-0.62,0.272-0.841,0.479c-0.226,0.202-0.395,0.433-0.508,0.695
			c-0.108,0.269-0.174,0.55-0.174,0.842c0,0.329,0.065,0.615,0.174,0.869c0.113,0.249,0.268,0.475,0.475,0.668
			c0.207,0.192,0.446,0.353,0.729,0.479c0.282,0.131,0.597,0.229,0.945,0.305c0.634,0.142,1.123,0.315,1.462,0.536
			c0.333,0.221,0.507,0.555,0.507,1.001c0,0.404-0.15,0.733-0.446,0.974c-0.296,0.244-0.71,0.356-1.25,0.356
			c-0.254,0-0.484-0.023-0.705-0.094c-0.221-0.061-0.414-0.146-0.593-0.254c-0.178-0.104-0.338-0.221-0.479-0.353
			c-0.141-0.131-0.268-0.268-0.38-0.39l-0.823,0.742c0.127,0.165,0.277,0.324,0.466,0.494c0.192,0.164,0.409,0.31,0.662,0.446
			c0.254,0.141,0.541,0.259,0.852,0.338c0.31,0.09,0.653,0.137,1.029,0.137c0.404,0,0.78-0.062,1.123-0.179
			c0.343-0.112,0.648-0.282,0.902-0.493c0.254-0.217,0.456-0.461,0.597-0.752c0.146-0.287,0.217-0.611,0.217-0.954
			c0-0.404-0.062-0.757-0.202-1.039C156.203,169.33,156.024,169.085,155.794,168.883z M25.216,124.63l2.56-0.677v-0.818h-6.712
			L14.772,138.5l-5.795-15.313H1.832v0.855l2.881,0.767v17.217l-2.881,0.762v0.884h7.556v-0.884l-3.058-0.822v-17.071l7.001,18.777
			h1.295l7.556-18.515v16.954l-2.56,0.677v0.884h8.209v-0.884l-2.616-0.695V124.63z M47.763,142.425
			c0.555-0.399,1.069-0.86,1.537-1.363c0.475-0.517,0.893-1.066,1.271-1.649c0.371-0.588,0.691-1.217,0.966-1.88
			c0.256-0.645,0.449-1.33,0.585-2.045c0.139-0.714,0.209-1.442,0.209-2.186c0-0.766-0.071-1.499-0.209-2.209
			c-0.136-0.7-0.336-1.368-0.608-1.993c-0.275-0.653-0.604-1.255-0.992-1.828c-0.378-0.56-0.82-1.091-1.312-1.584
			c-0.468-0.47-0.997-0.897-1.586-1.293c-0.585-0.395-1.206-0.714-1.85-0.973c-0.651-0.272-1.335-0.479-2.061-0.625
			c-0.724-0.155-1.471-0.226-2.235-0.226c-0.766,0-1.504,0.08-2.221,0.239c-0.717,0.155-1.4,0.372-2.044,0.645
			c-0.627,0.296-1.222,0.634-1.793,1.029c-0.571,0.395-1.088,0.846-1.563,1.349c-0.465,0.489-0.893,1.034-1.278,1.617
			c-0.381,0.587-0.701,1.213-0.957,1.88c-0.251,0.644-0.451,1.33-0.59,2.045c-0.136,0.714-0.2,1.442-0.2,2.186
			c0,0.747,0.08,1.471,0.232,2.176c0.153,0.71,0.372,1.382,0.644,2.026c0.298,0.653,0.644,1.264,1.046,1.842
			s0.853,1.109,1.344,1.599c0.507,0.47,1.055,0.902,1.64,1.292c0.588,0.396,1.217,0.725,1.883,1.002
			c0.653,0.229,1.33,0.423,2.03,0.568c0.708,0.155,1.431,0.226,2.179,0.226c0.74,0,1.466-0.07,2.165-0.226
			c0.693-0.146,1.351-0.353,1.981-0.63C46.604,143.164,47.199,142.825,47.763,142.425z M44.656,142.026
			c-0.449,0.254-0.942,0.446-1.471,0.573c-0.533,0.127-1.095,0.188-1.706,0.188c-0.59-0.015-1.142-0.099-1.659-0.249
			c-0.522-0.146-1.006-0.353-1.448-0.621c-0.435-0.258-0.837-0.578-1.201-0.944c-0.359-0.381-0.681-0.799-0.956-1.273
			c-0.296-0.451-0.545-0.94-0.748-1.462c-0.209-0.531-0.388-1.086-0.531-1.664c-0.153-0.578-0.256-1.18-0.322-1.81
			c-0.073-0.625-0.106-1.25-0.106-1.88c0-1.27,0.172-2.444,0.517-3.507c0.338-1.066,0.837-1.983,1.48-2.745
			c0.627-0.789,1.392-1.4,2.292-1.842c0.912-0.442,1.908-0.668,3.003-0.691c0.571,0,1.103,0.065,1.607,0.179
			c0.501,0.117,0.959,0.296,1.394,0.531c0.433,0.23,0.837,0.521,1.206,0.864c0.371,0.344,0.709,0.725,0.999,1.133
			c0.296,0.414,0.562,0.87,0.797,1.368c0.232,0.498,0.425,1.02,0.571,1.57c0.153,0.55,0.266,1.123,0.338,1.715
			c0.08,0.606,0.12,1.199,0.12,1.81c0,0.626-0.04,1.251-0.12,1.853c-0.073,0.61-0.192,1.185-0.354,1.748
			c-0.153,0.555-0.346,1.096-0.588,1.617c-0.232,0.517-0.507,0.996-0.82,1.424c-0.299,0.451-0.637,0.851-1.032,1.203
			C45.526,141.471,45.107,141.772,44.656,142.026z M56.896,137.763c0.298,0.653,0.644,1.264,1.045,1.842s0.846,1.109,1.335,1.599
			c0.508,0.47,1.063,0.902,1.65,1.292c0.587,0.396,1.215,0.725,1.885,1.002c0.642,0.229,1.318,0.423,2.026,0.568
			c0.708,0.155,1.434,0.226,2.181,0.226c0.741,0,1.464-0.07,2.158-0.226c0.7-0.146,1.361-0.353,1.988-0.63
			c0.627-0.272,1.222-0.611,1.776-1.011c0.564-0.399,1.079-0.86,1.546-1.363c0.475-0.517,0.893-1.066,1.265-1.649
			c0.376-0.588,0.698-1.217,0.971-1.88c0.258-0.645,0.451-1.33,0.59-2.045c0.136-0.714,0.209-1.442,0.209-2.186
			c0-0.766-0.073-1.499-0.209-2.209c-0.139-0.7-0.348-1.368-0.621-1.993c-0.275-0.653-0.604-1.255-0.982-1.828
			c-0.385-0.56-0.82-1.091-1.311-1.584c-0.468-0.47-0.999-0.897-1.584-1.293c-0.59-0.395-1.208-0.714-1.859-0.973
			c-0.646-0.272-1.328-0.479-2.054-0.625c-0.731-0.155-1.471-0.226-2.235-0.226c-0.767,0-1.507,0.08-2.221,0.239
			c-0.717,0.155-1.4,0.372-2.044,0.645c-0.627,0.296-1.231,0.634-1.795,1.029c-0.571,0.395-1.093,0.846-1.561,1.349
			c-0.475,0.489-0.903,1.034-1.279,1.617c-0.385,0.587-0.703,1.213-0.957,1.88c-0.258,0.644-0.453,1.33-0.59,2.045
			c-0.136,0.714-0.209,1.442-0.209,2.186c0,0.747,0.082,1.471,0.242,2.176C56.405,136.447,56.623,137.119,56.896,137.763z
			 M60.203,129.377c0.345-1.066,0.839-1.983,1.49-2.745c0.627-0.789,1.391-1.4,2.292-1.842c0.902-0.442,1.901-0.668,3.001-0.691
			c0.573,0,1.102,0.065,1.603,0.179c0.498,0.117,0.966,0.296,1.4,0.531c0.425,0.23,0.827,0.521,1.206,0.864
			c0.372,0.344,0.701,0.725,0.999,1.133c0.292,0.414,0.555,0.87,0.796,1.368c0.233,0.498,0.426,1.02,0.571,1.57
			c0.146,0.55,0.256,1.123,0.336,1.715c0.083,0.606,0.123,1.199,0.123,1.81c0,0.626-0.04,1.251-0.123,1.853
			c-0.08,0.61-0.19,1.185-0.353,1.748c-0.152,0.555-0.354,1.096-0.587,1.617c-0.232,0.517-0.505,0.996-0.82,1.424
			c-0.298,0.451-0.644,0.851-1.029,1.203c-0.395,0.357-0.822,0.658-1.271,0.912c-0.451,0.254-0.935,0.446-1.466,0.573
			c-0.529,0.127-1.1,0.188-1.704,0.188c-0.588-0.015-1.145-0.099-1.667-0.249c-0.515-0.146-0.997-0.353-1.44-0.621
			c-0.444-0.258-0.844-0.578-1.206-0.944c-0.365-0.381-0.684-0.799-0.959-1.273c-0.289-0.451-0.538-0.94-0.748-1.462
			c-0.202-0.531-0.38-1.086-0.531-1.664c-0.146-0.578-0.249-1.18-0.324-1.81c-0.063-0.625-0.104-1.25-0.104-1.88
			C59.688,131.615,59.866,130.44,60.203,129.377z M95.762,143.727h2.703v-18.89l2.646-0.738v-0.912h-7.323v0.855l2.971,0.795v14.575
			l-10.002-16.277H80.2v0.964l2.679,0.738v17.255l-2.679,0.695v0.884h7.354v-0.884l-3.001-0.822v-16.451L95.762,143.727z
			 M118.37,140.423c-0.226,0.348-0.507,0.663-0.836,0.959c-0.315,0.272-0.673,0.512-1.086,0.729
			c-0.409,0.221-0.867,0.361-1.352,0.441c-0.435,0.085-0.876,0.132-1.342,0.146c-0.461,0.028-0.936,0-1.424-0.056
			c-0.491-0.057-0.985-0.174-1.49-0.353c-0.499-0.179-0.989-0.419-1.48-0.733c-0.491-0.315-0.942-0.658-1.335-1.044
			c-0.402-0.385-0.783-0.789-1.135-1.222c-0.338-0.423-0.66-0.874-0.973-1.335c-0.315-0.456-0.604-0.931-0.886-1.42l-1.086,0.175
			l1.916,6.928h1.262l0.411-1.405c0.256,0.137,0.521,0.282,0.796,0.441c0.273,0.15,0.548,0.306,0.82,0.442
			c0.369,0.169,0.75,0.334,1.119,0.465c0.371,0.137,0.74,0.235,1.086,0.297c0.451,0.056,0.893,0.117,1.328,0.164
			c0.428,0.047,0.851,0.08,1.264,0.094c0.409,0,0.837-0.023,1.263-0.07c0.435-0.047,0.876-0.137,1.327-0.277
			c0.489-0.132,0.992-0.329,1.5-0.56c0.512-0.23,1.006-0.531,1.471-0.884c0.409-0.305,0.79-0.672,1.133-1.085
			c0.339-0.409,0.635-0.87,0.894-1.382c0.136-0.329,0.258-0.72,0.371-1.156c0.104-0.442,0.16-0.894,0.16-1.368
			c0-0.466-0.057-0.94-0.16-1.424c-0.113-0.479-0.287-0.917-0.55-1.312c-0.269-0.423-0.593-0.799-0.964-1.114
			c-0.376-0.314-0.79-0.588-1.236-0.822c-0.456-0.23-0.944-0.433-1.476-0.602c-0.521-0.17-1.076-0.329-1.641-0.479
			c-0.627-0.165-1.271-0.306-1.915-0.428c-0.645-0.132-1.286-0.272-1.915-0.428c-0.548-0.137-1.086-0.315-1.617-0.513
			c-0.524-0.207-1.029-0.475-1.497-0.813c-0.216-0.155-0.425-0.339-0.635-0.551c-0.202-0.197-0.362-0.446-0.481-0.729
			c-0.123-0.281-0.179-0.602-0.179-0.954c0-0.356,0.096-0.757,0.298-1.208c0.176-0.353,0.418-0.648,0.731-0.907
			c0.315-0.258,0.677-0.465,1.085-0.644c0.395-0.16,0.813-0.272,1.264-0.353c0.452-0.08,0.9-0.112,1.361-0.089
			c0.521,0.014,1.015,0.099,1.457,0.234c0.433,0.137,0.86,0.311,1.278,0.526c0.346,0.193,0.698,0.419,1.056,0.677
			c0.353,0.259,0.724,0.531,1.113,0.823l2.327,2.585l0.822-0.409l-1.819-5.354h-1.095l-0.324,1.006
			c-0.391-0.179-0.771-0.348-1.128-0.498c-0.367-0.16-0.729-0.301-1.089-0.428c-0.364-0.127-0.742-0.24-1.135-0.329
			c-0.386-0.09-0.806-0.141-1.231-0.184c-0.667-0.042-1.337-0.047-2.005-0.019c-0.667,0.023-1.311,0.146-1.938,0.339
			c-0.545,0.154-1.069,0.385-1.561,0.69s-0.933,0.691-1.321,1.161c-0.336,0.409-0.602,0.879-0.797,1.41
			c-0.192,0.521-0.305,1.086-0.322,1.673c0,0.433,0.042,0.865,0.129,1.321c0.089,0.456,0.249,0.884,0.491,1.292
			c0.176,0.339,0.451,0.658,0.836,0.974c0.378,0.31,0.823,0.61,1.312,0.883c0.481,0.25,1.022,0.494,1.6,0.701
			c0.581,0.216,1.159,0.39,1.749,0.531c0.546,0.136,1.103,0.263,1.664,0.366c0.557,0.108,1.121,0.235,1.692,0.371
			c0.545,0.137,1.093,0.287,1.633,0.466c0.536,0.179,1.067,0.395,1.599,0.644c0.301,0.16,0.563,0.371,0.799,0.62
			c0.23,0.259,0.409,0.546,0.536,0.865c0.131,0.324,0.197,0.695,0.197,1.104s-0.066,0.86-0.202,1.349
			C118.761,139.732,118.601,140.081,118.37,140.423z M135.433,124.856c0.052-0.155,0.141-0.268,0.268-0.357
			c0.118-0.084,0.264-0.15,0.438-0.174c0.179-0.033,0.381-0.047,0.62-0.047c0.489,0.023,0.949,0.089,1.377,0.192
			c0.433,0.113,0.847,0.249,1.241,0.424c0.409,0.201,0.804,0.437,1.171,0.709c0.38,0.272,0.719,0.578,1.033,0.907
			c0.311,0.339,0.602,0.691,0.87,1.081c0.268,0.376,0.508,0.752,0.724,1.119l1.053-0.32l-1.649-5.287h-17.382l-1.739,5.344
			l1.119,0.353c0.141-0.385,0.324-0.762,0.563-1.123c0.235-0.362,0.503-0.715,0.79-1.044c0.395-0.413,0.837-0.789,1.325-1.118
			c0.494-0.334,1.011-0.611,1.565-0.827c0.386-0.127,0.79-0.235,1.208-0.306c0.409-0.062,0.827-0.104,1.26-0.104
			c0.136,0,0.263,0.023,0.395,0.07c0.127,0.057,0.24,0.122,0.339,0.212c0.094,0.089,0.179,0.207,0.229,0.366
			c0.066,0.15,0.09,0.339,0.09,0.555v16.433l-3.022,0.817v0.907h9.293v-0.94l-3.268-0.851v-16.423
			C135.343,125.195,135.376,125.001,135.433,124.856z M155.794,122.811c-0.71,0.155-1.396,0.372-2.04,0.645
			c-0.63,0.296-1.231,0.634-1.795,1.029c-0.569,0.395-1.086,0.846-1.561,1.349c-0.466,0.489-0.894,1.034-1.278,1.617
			c-0.376,0.587-0.701,1.213-0.959,1.88c-0.249,0.644-0.447,1.33-0.588,2.045c-0.137,0.714-0.202,1.442-0.202,2.186
			c0,0.747,0.075,1.471,0.235,2.176c0.155,0.71,0.371,1.382,0.644,2.026c0.301,0.653,0.645,1.264,1.048,1.842
			c0.4,0.578,0.842,1.109,1.335,1.599c0.513,0.47,1.063,0.902,1.65,1.292c0.583,0.396,1.213,0.725,1.88,1.002
			c0.644,0.229,1.33,0.423,2.03,0.568c0.705,0.155,1.429,0.226,2.177,0.226c0.742,0,1.466-0.07,2.157-0.226
			c0.7-0.146,1.363-0.353,1.993-0.63c0.625-0.272,1.217-0.611,1.776-1.011c0.564-0.399,1.076-0.86,1.546-1.363
			c0.471-0.517,0.889-1.066,1.27-1.649c0.366-0.588,0.691-1.217,0.964-1.88c0.258-0.645,0.451-1.33,0.587-2.045
			c0.137-0.714,0.212-1.442,0.212-2.186c0-0.766-0.075-1.499-0.212-2.209c-0.136-0.7-0.333-1.368-0.61-1.993
			c-0.282-0.653-0.602-1.255-0.992-1.828c-0.381-0.56-0.817-1.091-1.307-1.584c-0.47-0.47-1.001-0.897-1.584-1.293
			c-0.592-0.395-1.208-0.714-1.856-0.973c-0.648-0.272-1.33-0.479-2.054-0.625c-0.729-0.155-1.477-0.226-2.242-0.226
			C157.256,122.572,156.514,122.652,155.794,122.811z M159.944,124.278c0.493,0.117,0.964,0.296,1.396,0.531
			c0.437,0.23,0.831,0.521,1.208,0.864c0.371,0.344,0.709,0.725,0.996,1.133c0.301,0.414,0.563,0.87,0.799,1.368
			c0.23,0.498,0.428,1.02,0.573,1.57c0.142,0.55,0.254,1.123,0.334,1.715c0.085,0.606,0.122,1.199,0.122,1.81
			c0,0.626-0.037,1.251-0.122,1.853c-0.08,0.61-0.192,1.185-0.353,1.748c-0.15,0.555-0.348,1.096-0.588,1.617
			c-0.229,0.517-0.507,0.996-0.817,1.424c-0.301,0.451-0.64,0.851-1.034,1.203c-0.395,0.357-0.813,0.658-1.26,0.912
			c-0.451,0.254-0.939,0.446-1.476,0.573c-0.526,0.127-1.091,0.188-1.706,0.188c-0.588-0.015-1.143-0.099-1.664-0.249
			c-0.518-0.146-0.996-0.353-1.438-0.621c-0.446-0.258-0.846-0.578-1.213-0.944c-0.356-0.381-0.672-0.799-0.944-1.273
			c-0.301-0.451-0.55-0.94-0.757-1.462c-0.202-0.531-0.381-1.086-0.521-1.664c-0.155-0.578-0.259-1.18-0.334-1.81
			c-0.062-0.625-0.094-1.25-0.094-1.88c0-1.27,0.169-2.444,0.517-3.507c0.334-1.066,0.837-1.983,1.476-2.745
			c0.63-0.789,1.392-1.4,2.294-1.842c0.902-0.442,1.908-0.668,3.004-0.691C158.915,124.099,159.441,124.165,159.944,124.278z
			 M185.143,124.042l2.971,0.795v14.575l-10.002-16.277h-6.558v0.964l2.68,0.738v17.255l-2.68,0.695v0.884h7.356v-0.884
			l-3.004-0.822v-16.451l11.21,18.213h2.703v-18.89l2.651-0.738v-0.912h-7.328V124.042z M215.177,136.799
			c-0.356,0.466-0.709,0.907-1.081,1.32c-0.361,0.404-0.724,0.795-1.1,1.147c-0.526,0.488-1.066,0.916-1.603,1.288
			c-0.541,0.376-1.071,0.682-1.603,0.916c-0.569,0.254-1.147,0.446-1.739,0.583c-0.588,0.137-1.171,0.226-1.763,0.264
			c-0.475,0.019-0.94,0.014-1.4-0.028c-0.456-0.043-0.926-0.099-1.392-0.179c-0.239-0.038-0.465-0.127-0.677-0.282
			c-0.216-0.146-0.399-0.319-0.56-0.536c-0.136-0.192-0.259-0.418-0.353-0.662c-0.104-0.249-0.15-0.489-0.15-0.72v-6.519h4.912
			l1.029,3.783h1.029v-8.987h-1.119l-0.906,3.789h-4.945V126.6c0-0.235,0.042-0.471,0.127-0.691c0.07-0.226,0.184-0.428,0.319-0.602
			c0.137-0.197,0.315-0.366,0.526-0.498c0.217-0.137,0.456-0.235,0.705-0.292c0.451-0.079,0.907-0.126,1.368-0.15
			c0.466-0.019,0.921-0.009,1.4,0.028c0.588,0.043,1.171,0.127,1.744,0.282c0.583,0.146,1.138,0.339,1.664,0.568
			c0.451,0.198,0.897,0.419,1.33,0.678c0.428,0.258,0.837,0.53,1.231,0.817c0.39,0.319,0.762,0.653,1.118,1.006
			c0.353,0.353,0.678,0.724,0.974,1.119l0.911-0.264l-1.974-5.467h-17.208v0.907l2.675,0.733v17.278l-2.557,0.677v0.907h17.354
			l2.707-6.463L215.177,136.799z M45.011,154.881h127.981v-1.011H45.011V154.881z M118.483,86.89
			c-9.321-0.132-18.644-0.259-27.959-0.402c-2.348-0.035-4.63-0.268-6.978-0.303c-6.623-0.099-13.281-0.221-19.892-0.162
			c-1.84,0.014-3.57,0.623-5.349,0.961c1.758,0.261,3.366,0.653,5.305,0.757c5.551,0.293,11.25,0.46,16.867,0.7
			c5.911,0.256,7.161,1.038,3.206,1.99c-2.205,0.526-4.717,1.001-6.733,1.561c-2.809,0.775-1.899,1.631,2.094,2.021
			c2.686,0.263,5.396,0.399,8.12,0.47c-3.046,0.075-6.073,0.235-9.05,0.592c-4.165,0.499-4.343,1.523-0.042,1.979
			c4.19,0.451,8.818,0.714,13.006,1.161c3.267,0.352,6.277,0.827,9.182,1.311c0.952,0.155,1.901,0.259,2.848,0.344
			c-0.844,0.104-1.685,0.258-2.517,0.503c-1.711,0.503-1.784,1.522-0.016,1.983c1.722,0.446,3.624,0.705,5.344,1.156
			c1.342,0.348,2.581,0.827,3.772,1.307c1.753,0.71,3.455,0.588,5.347,0.155c3.856-0.889,7.452-2.144,11.884-2.271
			c1.063-0.028,2.087-0.418,3.403-0.7c-3.022-1.396-6.435-1.373-9.683-1.1c-3.83,0.319-7.248-0.23-10.735-0.8
			c-0.369-0.061-0.733-0.094-1.1-0.141c1.457-0.052,2.928-0.141,4.465-0.291c9.387-0.889,18.139-2.139,28.921-2.262
			c2.585-0.032,5.076-0.418,8.277-0.704c-7.347-1.396-15.666-1.373-23.563-1.101c-9.316,0.32-17.638-0.226-26.124-0.794
			c-1.875-0.127-3.742-0.23-5.598-0.296c4.245-0.057,8.507-0.184,12.769-0.245c6.914-0.094,13.896-0.014,20.833,0.043
			c8.865,0.07,17.721,0.239,26.585,0.258c1.522,0.005,4.094-0.498,4.314-0.827c0.202-0.306-1.758-0.851-3.351-0.996
			c-3.671-0.334-7.681-0.498-11.577-0.715c-6.909-0.39-13.89-0.729-20.714-1.175c-1.509-0.099-3.554-0.588-3.44-0.86
			c0.075-0.176,0.63-0.378,1.372-0.552c4.484,0.119,8.968,0.232,13.447,0.361c1.255,0.035,2.473,0.269,3.728,0.304
			c3.549,0.099,7.106,0.223,10.646,0.164c0.986-0.017,1.913-0.627,2.862-0.961c-0.94-0.261-1.801-0.653-2.839-0.757
			c-2.971-0.296-6.017-0.461-9.024-0.702c-0.682-0.057-1.228-0.139-1.679-0.243c0.02,0,0.038-0.004,0.062-0.007
			c-0.348-0.12-0.691-0.237-1.034-0.357c-0.536-0.364-0.263-0.844,0.936-1.382c0.926-0.416,1.95-0.796,2.867-1.212
			c4.475,0.054,8.949,0.103,13.424,0.113c1.522,0.002,4.094-0.501,4.314-0.825c0.202-0.305-1.758-0.855-3.351-1.001
			c-3.671-0.334-7.681-0.498-11.577-0.717c-2.237-0.125-4.484-0.245-6.73-0.364c-0.292-0.021-0.583-0.035-0.879-0.049
			c-4.391-0.235-8.78-0.477-13.104-0.759c-1.509-0.099-3.554-0.585-3.44-0.86c0.136-0.334,2.007-0.759,3.609-0.917
			c3.135-0.308,6.698-0.411,9.903-0.693c1.866-0.167,3.385-0.517,5.063-0.783c-0.357-0.125-0.715-0.245-1.071-0.369
			c-1.077-0.038-2.139-0.096-3.22-0.113c-4.254-0.061-8.513-0.122-12.762-0.181c15.29-5.502,26.237-20.125,26.237-37.304
			c0-19.48-14.097-35.685-32.644-38.991c5.692,5.856,9.18,13.837,9.18,22.634c0,17.988-14.592,32.561-32.583,32.561
			c-8.82,0-16.811-3.485-22.672-9.173c2.444,13.692,11.939,24.923,24.592,29.873c-1.236-0.019-2.477-0.035-3.713-0.054
			c-2.348-0.036-4.63-0.271-6.978-0.306c-6.623-0.099-13.281-0.219-19.892-0.162c-1.84,0.017-3.57,0.625-5.349,0.961
			c1.758,0.261,3.366,0.653,5.305,0.757c5.551,0.296,11.25,0.461,16.867,0.701c5.911,0.256,7.161,1.039,3.206,1.99
			c-2.205,0.526-4.717,1.003-6.733,1.561c-2.809,0.78-1.899,1.633,2.094,2.023c9.457,0.921,19.193,0.393,28.909,0.259
			c0.141-0.002,0.284,0,0.423-0.002c3.05,0.308,6.108,0.606,9.116,0.975c0.804,0.097,1.895,0.585,1.838,0.86
			C119.287,86.49,118.93,86.706,118.483,86.89z"/>
	</g>
</g>
</svg>
