<?xml version="1.0" encoding="utf-8"?>
<!-- Generator: Adobe Illustrator 15.0.0, SVG Export Plug-In . SVG Version: 6.00 Build 0)  -->
<!DOCTYPE svg PUBLIC "-//W3C//DTD SVG 1.1//EN" "http://www.w3.org/Graphics/SVG/1.1/DTD/svg11.dtd">
<svg version="1.1" id="Layer_1" xmlns="http://www.w3.org/2000/svg" xmlns:xlink="http://www.w3.org/1999/xlink" x="0px" y="0px"
	 width="50px" height="50px" viewBox="0 0 50 50" enable-background="new 0 0 50 50" xml:space="preserve">
<path d="M47.723,45.944L33.83,32.05c2.885-3.204,4.659-7.429,4.659-12.07c0-9.967-8.108-18.076-18.074-18.076
	c-9.967,0-18.075,8.109-18.075,18.076c0,9.968,8.108,18.075,18.075,18.075c4.641,0,8.865-1.773,12.069-4.659l13.893,13.894
	c0.187,0.187,0.431,0.278,0.674,0.278s0.486-0.092,0.673-0.278C48.095,46.918,48.095,46.316,47.723,45.944z M20.416,36.152
	c-8.917,0-16.172-7.255-16.172-16.173S11.499,3.807,20.416,3.807s16.171,7.255,16.171,16.173S29.332,36.152,20.416,36.152z"/>
</svg>
