<?xml version="1.0" encoding="utf-8"?>
<!-- Generator: Adobe Illustrator 15.0.0, SVG Export Plug-In . SVG Version: 6.00 Build 0)  -->
<!DOCTYPE svg PUBLIC "-//W3C//DTD SVG 1.1//EN" "http://www.w3.org/Graphics/SVG/1.1/DTD/svg11.dtd">
<svg version="1.1" id="Layer_1" xmlns="http://www.w3.org/2000/svg" xmlns:xlink="http://www.w3.org/1999/xlink" x="0px" y="0px"
	 width="218px" height="53.666px" viewBox="0 120.667 218 53.666" enable-background="new 0 120.667 218 53.666"
	 xml:space="preserve">
<g>
	<g>
		<path d="M66.238,165.583c-0.212-0.226-0.503-0.428-0.86-0.578c-0.359-0.148-0.813-0.226-1.356-0.226h-2.55v8.048h1.145v-3.164
			h1.466c0.393,0,0.757-0.047,1.088-0.148c0.336-0.108,0.627-0.266,0.867-0.467c0.242-0.211,0.428-0.465,0.566-0.766
			c0.137-0.312,0.205-0.664,0.205-1.068c0-0.268-0.04-0.549-0.122-0.846C66.597,166.083,66.452,165.819,66.238,165.583z
			 M65.22,168.295c-0.27,0.254-0.655,0.375-1.151,0.375h-1.452v-2.898h1.452c0.482,0,0.86,0.132,1.145,0.391
			c0.275,0.258,0.414,0.615,0.414,1.08C65.626,167.69,65.493,168.042,65.22,168.295z M80.272,164.78h-1.156v8.047h5.352v-1.022
			h-4.195L80.272,164.78L80.272,164.78z M99.412,164.78l-3.147,8.047h1.22l0.834-2.242h3.304l0.832,2.242h1.295l-3.154-8.047H99.412
			z M98.655,169.607l1.314-3.534l1.302,3.534H98.655z M114.199,165.792h2.893v7.035h1.156v-7.035h2.877v-1.012h-6.926V165.792
			L114.199,165.792z M134.439,169.184h2.947v-1.039h-2.947v-2.341h3.912v-1.024h-5.076v8.047h5.367v-1.037h-4.203V169.184z
			 M155.794,168.883c-0.226-0.188-0.479-0.348-0.762-0.465c-0.291-0.119-0.582-0.213-0.874-0.282
			c-0.311-0.075-0.583-0.15-0.822-0.229c-0.23-0.076-0.434-0.166-0.597-0.273c-0.16-0.106-0.282-0.233-0.367-0.375
			c-0.08-0.137-0.132-0.312-0.132-0.508c0-0.142,0.037-0.276,0.09-0.414c0.057-0.142,0.146-0.254,0.263-0.365
			c0.123-0.108,0.273-0.197,0.462-0.27c0.188-0.064,0.408-0.104,0.662-0.104c0.264,0,0.488,0.037,0.686,0.089
			c0.199,0.062,0.367,0.142,0.52,0.226c0.148,0.09,0.27,0.18,0.366,0.271c0.104,0.099,0.17,0.174,0.217,0.229l0.774-0.715
			c-0.064-0.074-0.154-0.188-0.276-0.314s-0.28-0.254-0.483-0.375c-0.197-0.117-0.445-0.221-0.725-0.301
			c-0.291-0.09-0.63-0.133-1.027-0.133c-0.442,0-0.832,0.063-1.172,0.188c-0.339,0.113-0.619,0.273-0.842,0.48
			c-0.227,0.2-0.396,0.432-0.508,0.693c-0.107,0.27-0.176,0.55-0.176,0.842c0,0.329,0.066,0.615,0.176,0.869
			c0.111,0.249,0.27,0.477,0.477,0.668c0.205,0.191,0.444,0.354,0.729,0.479c0.281,0.131,0.597,0.229,0.945,0.306
			c0.633,0.144,1.123,0.313,1.461,0.534c0.334,0.223,0.508,0.557,0.508,1.003c0,0.403-0.15,0.731-0.446,0.974
			c-0.296,0.244-0.71,0.355-1.25,0.355c-0.254,0-0.483-0.022-0.705-0.094c-0.221-0.062-0.414-0.146-0.593-0.254
			c-0.178-0.104-0.338-0.222-0.479-0.354c-0.143-0.131-0.27-0.268-0.381-0.391l-0.822,0.742c0.127,0.166,0.275,0.323,0.465,0.493
			c0.193,0.164,0.41,0.312,0.662,0.446c0.254,0.143,0.541,0.259,0.853,0.338c0.31,0.09,0.653,0.139,1.028,0.139
			c0.404,0,0.781-0.064,1.123-0.181c0.344-0.11,0.647-0.282,0.902-0.493c0.254-0.217,0.457-0.461,0.598-0.752
			c0.146-0.287,0.217-0.609,0.217-0.954c0-0.403-0.063-0.757-0.202-1.038C156.203,169.331,156.023,169.084,155.794,168.883z
			 M25.216,124.629l2.56-0.676v-0.818h-6.712L14.772,138.5l-5.795-15.313H1.832v0.854l2.881,0.768v17.217l-2.881,0.762v0.885h7.556
			v-0.885l-3.058-0.822v-17.069l7.001,18.776h1.295l7.556-18.516v16.954l-2.56,0.677v0.885h8.209v-0.885l-2.616-0.695
			L25.216,124.629L25.216,124.629z M47.763,142.424c0.555-0.398,1.069-0.859,1.537-1.362c0.475-0.517,0.893-1.065,1.271-1.649
			c0.371-0.588,0.691-1.217,0.966-1.879c0.256-0.646,0.449-1.33,0.585-2.046c0.139-0.714,0.209-1.442,0.209-2.187
			c0-0.766-0.071-1.498-0.209-2.209c-0.136-0.699-0.336-1.367-0.608-1.992c-0.275-0.653-0.604-1.255-0.992-1.828
			c-0.378-0.561-0.82-1.091-1.312-1.584c-0.468-0.471-0.997-0.896-1.586-1.293c-0.585-0.395-1.206-0.714-1.85-0.973
			c-0.651-0.272-1.335-0.479-2.061-0.625c-0.724-0.155-1.471-0.228-2.235-0.228c-0.766,0-1.504,0.08-2.221,0.239
			c-0.717,0.154-1.4,0.372-2.044,0.646c-0.627,0.295-1.222,0.633-1.793,1.027c-0.571,0.396-1.088,0.848-1.563,1.35
			c-0.465,0.488-0.893,1.035-1.278,1.617c-0.381,0.588-0.701,1.213-0.957,1.881c-0.251,0.644-0.451,1.33-0.59,2.045
			c-0.136,0.713-0.2,1.44-0.2,2.186c0,0.747,0.08,1.471,0.232,2.176c0.153,0.71,0.372,1.383,0.644,2.026
			c0.298,0.653,0.644,1.264,1.046,1.842c0.402,0.578,0.853,1.108,1.344,1.599c0.507,0.471,1.055,0.902,1.64,1.293
			c0.588,0.396,1.217,0.726,1.883,1.002c0.653,0.229,1.33,0.422,2.03,0.567c0.708,0.155,1.431,0.226,2.179,0.226
			c0.74,0,1.466-0.068,2.165-0.226c0.693-0.146,1.351-0.353,1.981-0.63C46.604,143.165,47.199,142.825,47.763,142.424z
			 M44.656,142.026c-0.449,0.254-0.942,0.446-1.471,0.573c-0.533,0.127-1.095,0.188-1.706,0.188c-0.59-0.017-1.142-0.101-1.659-0.25
			c-0.522-0.146-1.006-0.354-1.448-0.621c-0.435-0.258-0.837-0.578-1.201-0.943c-0.359-0.381-0.681-0.799-0.956-1.273
			c-0.296-0.451-0.545-0.938-0.748-1.462c-0.209-0.53-0.388-1.086-0.531-1.663c-0.153-0.578-0.256-1.181-0.322-1.811
			c-0.073-0.625-0.106-1.25-0.106-1.881c0-1.271,0.172-2.443,0.517-3.506c0.338-1.066,0.837-1.983,1.48-2.746
			c0.627-0.789,1.392-1.399,2.292-1.842c0.912-0.441,1.908-0.668,3.003-0.69c0.571,0,1.103,0.065,1.607,0.179
			c0.501,0.117,0.959,0.297,1.394,0.531c0.433,0.23,0.837,0.521,1.206,0.863c0.371,0.345,0.709,0.726,0.999,1.134
			c0.296,0.414,0.562,0.87,0.797,1.368c0.232,0.498,0.425,1.02,0.571,1.57c0.153,0.549,0.266,1.123,0.338,1.715
			c0.08,0.604,0.12,1.199,0.12,1.81c0,0.626-0.04,1.251-0.12,1.853c-0.073,0.61-0.192,1.187-0.354,1.748
			c-0.153,0.555-0.346,1.096-0.588,1.617c-0.232,0.518-0.507,0.996-0.82,1.424c-0.299,0.451-0.637,0.853-1.032,1.203
			C45.526,141.471,45.107,141.772,44.656,142.026z M56.896,137.763c0.298,0.653,0.644,1.264,1.045,1.842s0.846,1.108,1.335,1.599
			c0.508,0.471,1.063,0.902,1.65,1.293c0.587,0.396,1.215,0.726,1.885,1.002c0.642,0.229,1.318,0.422,2.026,0.567
			c0.708,0.155,1.434,0.226,2.181,0.226c0.741,0,1.464-0.068,2.158-0.226c0.7-0.146,1.361-0.353,1.988-0.63
			c0.627-0.271,1.222-0.611,1.776-1.012c0.564-0.398,1.079-0.859,1.546-1.362c0.475-0.517,0.893-1.065,1.265-1.649
			c0.376-0.588,0.698-1.217,0.971-1.879c0.258-0.646,0.451-1.33,0.59-2.046c0.136-0.714,0.209-1.442,0.209-2.187
			c0-0.766-0.073-1.498-0.209-2.209c-0.139-0.699-0.348-1.367-0.621-1.992c-0.275-0.653-0.604-1.256-0.982-1.828
			c-0.385-0.561-0.82-1.091-1.311-1.584c-0.468-0.471-0.999-0.896-1.584-1.293c-0.59-0.395-1.208-0.714-1.859-0.973
			c-0.646-0.272-1.328-0.479-2.054-0.625c-0.731-0.155-1.471-0.228-2.235-0.228c-0.767,0-1.507,0.08-2.221,0.239
			c-0.717,0.154-1.4,0.372-2.044,0.646c-0.627,0.295-1.231,0.633-1.795,1.027c-0.571,0.396-1.093,0.848-1.561,1.35
			c-0.475,0.488-0.903,1.035-1.279,1.617c-0.385,0.588-0.703,1.213-0.957,1.881c-0.258,0.644-0.453,1.33-0.59,2.045
			c-0.136,0.713-0.209,1.44-0.209,2.186c0,0.747,0.082,1.471,0.242,2.176C56.405,136.448,56.623,137.12,56.896,137.763z
			 M60.203,129.377c0.345-1.066,0.839-1.983,1.49-2.746c0.627-0.789,1.391-1.399,2.292-1.842c0.902-0.441,1.901-0.668,3.001-0.69
			c0.573,0,1.102,0.065,1.603,0.179c0.498,0.117,0.966,0.297,1.4,0.531c0.425,0.23,0.827,0.521,1.206,0.863
			c0.372,0.345,0.701,0.726,0.999,1.134c0.292,0.414,0.555,0.87,0.796,1.368c0.233,0.498,0.426,1.02,0.571,1.57
			c0.146,0.549,0.256,1.123,0.336,1.715c0.083,0.604,0.123,1.199,0.123,1.81c0,0.626-0.04,1.251-0.123,1.853
			c-0.08,0.61-0.19,1.187-0.353,1.748c-0.152,0.555-0.354,1.096-0.587,1.617c-0.232,0.518-0.505,0.996-0.82,1.424
			c-0.298,0.451-0.644,0.853-1.029,1.203c-0.395,0.357-0.822,0.658-1.271,0.912c-0.451,0.254-0.935,0.446-1.466,0.573
			c-0.529,0.127-1.1,0.188-1.704,0.188c-0.588-0.017-1.145-0.101-1.667-0.25c-0.515-0.146-0.997-0.354-1.44-0.621
			c-0.444-0.258-0.844-0.578-1.206-0.943c-0.365-0.381-0.684-0.799-0.959-1.273c-0.289-0.451-0.538-0.938-0.748-1.462
			c-0.202-0.53-0.38-1.086-0.531-1.663c-0.146-0.578-0.249-1.181-0.324-1.811c-0.063-0.625-0.104-1.25-0.104-1.881
			C59.688,131.616,59.866,130.44,60.203,129.377z M95.762,143.727h2.703v-18.891l2.646-0.737v-0.912h-7.323v0.854l2.971,0.795
			v14.576l-10.002-16.277H80.2v0.964l2.679,0.737v17.256l-2.679,0.695v0.883h7.354v-0.883l-3.001-0.822v-16.451L95.762,143.727z
			 M118.37,140.422c-0.226,0.349-0.507,0.664-0.836,0.959c-0.315,0.271-0.673,0.513-1.086,0.729
			c-0.409,0.223-0.867,0.361-1.353,0.439c-0.436,0.086-0.875,0.134-1.343,0.146c-0.461,0.028-0.937,0-1.424-0.056
			c-0.491-0.058-0.983-0.175-1.49-0.353c-0.499-0.181-0.987-0.42-1.48-0.733c-0.491-0.315-0.942-0.658-1.335-1.044
			c-0.402-0.385-0.783-0.789-1.135-1.223c-0.338-0.422-0.66-0.873-0.973-1.334c-0.315-0.457-0.604-0.933-0.886-1.42l-1.086,0.174
			l1.916,6.928h1.262l0.411-1.404c0.256,0.137,0.521,0.282,0.796,0.441c0.273,0.149,0.548,0.306,0.82,0.44
			c0.371,0.171,0.75,0.334,1.121,0.466c0.371,0.137,0.738,0.234,1.086,0.297c0.451,0.057,0.893,0.117,1.328,0.164
			c0.428,0.047,0.851,0.08,1.264,0.094c0.408,0,0.837-0.022,1.263-0.069c0.435-0.047,0.876-0.138,1.327-0.276
			c0.488-0.133,0.992-0.33,1.5-0.561c0.512-0.23,1.006-0.531,1.471-0.885c0.409-0.305,0.79-0.672,1.133-1.084
			c0.34-0.409,0.635-0.87,0.896-1.383c0.136-0.328,0.258-0.72,0.371-1.156c0.104-0.441,0.159-0.893,0.159-1.367
			c0-0.467-0.058-0.939-0.159-1.424c-0.113-0.479-0.287-0.918-0.552-1.313c-0.269-0.424-0.592-0.8-0.963-1.113
			c-0.377-0.314-0.791-0.588-1.235-0.822c-0.456-0.23-0.944-0.434-1.478-0.602c-0.521-0.17-1.076-0.33-1.641-0.479
			c-0.627-0.165-1.271-0.306-1.915-0.429c-0.646-0.131-1.286-0.271-1.915-0.428c-0.548-0.138-1.086-0.314-1.617-0.514
			c-0.523-0.207-1.029-0.477-1.497-0.813c-0.216-0.154-0.425-0.338-0.635-0.552c-0.202-0.196-0.362-0.444-0.481-0.729
			c-0.123-0.28-0.179-0.602-0.179-0.953c0-0.355,0.096-0.758,0.298-1.208c0.176-0.354,0.418-0.647,0.731-0.907
			c0.315-0.258,0.677-0.465,1.085-0.645c0.395-0.16,0.813-0.271,1.264-0.354c0.452-0.08,0.9-0.111,1.361-0.089
			c0.521,0.015,1.016,0.099,1.457,0.233c0.434,0.138,0.859,0.312,1.277,0.526c0.347,0.192,0.699,0.419,1.057,0.677
			c0.354,0.26,0.725,0.53,1.113,0.823l2.326,2.585l0.821-0.408l-1.817-5.354h-1.097l-0.323,1.006
			c-0.392-0.179-0.771-0.349-1.127-0.497c-0.367-0.16-0.729-0.302-1.09-0.429c-0.363-0.127-0.742-0.24-1.136-0.329
			c-0.386-0.09-0.808-0.141-1.229-0.184c-0.668-0.043-1.338-0.047-2.006-0.021c-0.666,0.022-1.312,0.146-1.938,0.341
			c-0.545,0.152-1.069,0.385-1.561,0.688c-0.492,0.305-0.933,0.69-1.321,1.161c-0.336,0.408-0.602,0.879-0.797,1.408
			c-0.192,0.521-0.305,1.086-0.322,1.674c0,0.434,0.042,0.865,0.129,1.32c0.089,0.457,0.249,0.885,0.491,1.293
			c0.176,0.338,0.451,0.658,0.836,0.975c0.378,0.31,0.823,0.609,1.312,0.883c0.481,0.25,1.022,0.494,1.6,0.701
			c0.582,0.216,1.16,0.39,1.75,0.529c0.547,0.137,1.104,0.265,1.664,0.367c0.558,0.107,1.121,0.234,1.691,0.371
			c0.547,0.137,1.094,0.286,1.635,0.465c0.534,0.18,1.065,0.396,1.599,0.646c0.301,0.159,0.563,0.37,0.799,0.62
			c0.229,0.259,0.409,0.546,0.536,0.863c0.131,0.324,0.197,0.695,0.197,1.104s-0.066,0.86-0.203,1.349
			C118.762,139.732,118.602,140.081,118.37,140.422z M135.434,124.856c0.051-0.154,0.142-0.268,0.269-0.357
			c0.116-0.084,0.264-0.148,0.438-0.174c0.18-0.033,0.381-0.047,0.619-0.047c0.489,0.023,0.949,0.09,1.379,0.192
			c0.432,0.112,0.846,0.249,1.239,0.424c0.409,0.201,0.806,0.437,1.171,0.709c0.381,0.272,0.721,0.578,1.033,0.907
			c0.313,0.339,0.604,0.691,0.87,1.08c0.269,0.377,0.508,0.752,0.724,1.119l1.055-0.319l-1.649-5.287h-17.382l-1.739,5.344
			l1.119,0.353c0.142-0.385,0.323-0.762,0.563-1.123c0.233-0.36,0.502-0.715,0.789-1.043c0.396-0.414,0.838-0.789,1.324-1.117
			c0.494-0.334,1.012-0.611,1.564-0.827c0.387-0.127,0.789-0.233,1.207-0.308c0.41-0.062,0.828-0.104,1.262-0.104
			c0.136,0,0.264,0.023,0.396,0.07c0.127,0.057,0.238,0.121,0.338,0.212c0.095,0.089,0.18,0.207,0.229,0.366
			c0.064,0.15,0.09,0.339,0.09,0.555v16.434l-3.021,0.816v0.907h9.293v-0.94l-3.268-0.851v-16.423
			C135.343,125.195,135.376,125,135.434,124.856z M155.794,122.811c-0.71,0.154-1.396,0.372-2.04,0.645
			c-0.63,0.297-1.23,0.635-1.795,1.029c-0.568,0.395-1.086,0.846-1.561,1.35c-0.467,0.488-0.896,1.033-1.278,1.617
			c-0.376,0.586-0.701,1.213-0.959,1.879c-0.249,0.646-0.447,1.33-0.588,2.045c-0.138,0.715-0.202,1.442-0.202,2.188
			c0,0.747,0.074,1.473,0.234,2.176c0.156,0.711,0.371,1.383,0.645,2.026c0.301,0.651,0.645,1.264,1.048,1.842
			c0.4,0.578,0.843,1.108,1.335,1.601c0.514,0.469,1.063,0.9,1.65,1.291c0.583,0.396,1.213,0.726,1.88,1.002
			c0.644,0.229,1.33,0.424,2.03,0.567c0.705,0.155,1.429,0.228,2.177,0.228c0.741,0,1.466-0.07,2.157-0.228
			c0.699-0.146,1.363-0.354,1.992-0.63c0.625-0.271,1.217-0.609,1.775-1.012c0.563-0.398,1.076-0.859,1.546-1.362
			c0.472-0.519,0.89-1.065,1.271-1.647c0.367-0.588,0.691-1.219,0.965-1.881c0.258-0.646,0.451-1.33,0.587-2.045
			c0.137-0.715,0.212-1.441,0.212-2.188c0-0.766-0.075-1.5-0.212-2.209c-0.136-0.699-0.333-1.367-0.61-1.992
			c-0.281-0.652-0.602-1.255-0.992-1.828c-0.381-0.561-0.815-1.091-1.307-1.584c-0.47-0.471-1.001-0.896-1.584-1.293
			c-0.592-0.396-1.208-0.714-1.855-0.975c-0.647-0.271-1.33-0.479-2.055-0.625c-0.729-0.153-1.477-0.226-2.242-0.226
			C157.256,122.572,156.514,122.652,155.794,122.811z M159.943,124.278c0.494,0.117,0.965,0.297,1.396,0.531
			c0.438,0.23,0.831,0.521,1.208,0.863c0.371,0.345,0.709,0.726,0.996,1.134c0.303,0.414,0.563,0.87,0.799,1.368
			c0.229,0.498,0.43,1.02,0.573,1.57c0.144,0.549,0.254,1.123,0.334,1.715c0.085,0.604,0.122,1.199,0.122,1.81
			c0,0.626-0.037,1.251-0.122,1.853c-0.08,0.61-0.19,1.187-0.354,1.748c-0.148,0.555-0.348,1.096-0.588,1.617
			c-0.229,0.518-0.507,0.996-0.815,1.424c-0.302,0.451-0.642,0.853-1.034,1.203c-0.396,0.357-0.813,0.658-1.26,0.912
			c-0.451,0.254-0.939,0.446-1.477,0.573c-0.527,0.127-1.092,0.188-1.707,0.188c-0.588-0.017-1.143-0.101-1.664-0.25
			c-0.518-0.146-0.996-0.354-1.438-0.621c-0.446-0.258-0.846-0.578-1.213-0.943c-0.355-0.381-0.672-0.799-0.944-1.273
			c-0.301-0.451-0.55-0.938-0.757-1.462c-0.202-0.53-0.381-1.086-0.521-1.663c-0.154-0.578-0.258-1.181-0.334-1.811
			c-0.062-0.625-0.094-1.25-0.094-1.881c0-1.271,0.17-2.443,0.518-3.506c0.334-1.066,0.836-1.983,1.477-2.746
			c0.63-0.789,1.393-1.399,2.294-1.842c0.901-0.441,1.908-0.668,3.004-0.69C158.915,124.099,159.441,124.165,159.943,124.278z
			 M185.143,124.042l2.971,0.795v14.576l-10.002-16.277h-6.557v0.965l2.68,0.736v17.256l-2.68,0.695v0.883h7.355v-0.883
			l-3.004-0.822v-16.45l11.21,18.213h2.702v-18.892l2.652-0.736v-0.912h-7.328V124.042L185.143,124.042z M215.177,136.799
			c-0.356,0.466-0.709,0.906-1.081,1.32c-0.361,0.402-0.724,0.795-1.1,1.146c-0.525,0.487-1.066,0.916-1.604,1.288
			c-0.541,0.376-1.07,0.682-1.604,0.916c-0.568,0.254-1.146,0.445-1.739,0.582c-0.588,0.138-1.171,0.227-1.763,0.265
			c-0.477,0.021-0.939,0.015-1.398-0.026c-0.457-0.043-0.928-0.101-1.394-0.181c-0.239-0.036-0.466-0.127-0.679-0.28
			c-0.215-0.146-0.397-0.32-0.56-0.537c-0.136-0.191-0.259-0.418-0.353-0.662c-0.104-0.248-0.15-0.488-0.15-0.719v-6.521h4.912
			l1.029,3.782h1.029v-8.986h-1.119l-0.906,3.789h-4.945V126.6c0-0.234,0.042-0.471,0.127-0.691c0.07-0.226,0.184-0.428,0.319-0.602
			c0.137-0.197,0.315-0.366,0.526-0.498c0.217-0.137,0.455-0.234,0.705-0.292c0.449-0.079,0.905-0.126,1.366-0.149
			c0.468-0.02,0.923-0.01,1.4,0.027c0.588,0.043,1.171,0.127,1.743,0.281c0.582,0.146,1.139,0.34,1.664,0.568
			c0.451,0.197,0.896,0.42,1.33,0.678c0.429,0.259,0.836,0.531,1.23,0.818c0.391,0.317,0.762,0.651,1.118,1.006
			c0.353,0.353,0.678,0.724,0.974,1.119l0.911-0.266l-1.974-5.469h-17.209v0.908l2.676,0.732v17.277l-2.557,0.678v0.906h17.354
			l2.707-6.463L215.177,136.799z M45.011,154.881h127.981v-1.012H45.011V154.881z"/>
	</g>
</g>
</svg>
