<?xml version="1.0" encoding="utf-8"?>
<!-- Generator: Adobe Illustrator 15.0.0, SVG Export Plug-In . SVG Version: 6.00 Build 0)  -->
<!DOCTYPE svg PUBLIC "-//W3C//DTD SVG 1.1//EN" "http://www.w3.org/Graphics/SVG/1.1/DTD/svg11.dtd">
<svg version="1.1" id="Layer_1" xmlns="http://www.w3.org/2000/svg" xmlns:xlink="http://www.w3.org/1999/xlink" x="0px" y="0px"
	 width="104.5px" height="107.667px" viewBox="57 0 104.5 107.667" enable-background="new 57 0 104.5 107.667"
	 xml:space="preserve">
<g>
	<g>
		<path d="M118.482,86.89c-9.32-0.132-18.645-0.259-27.958-0.402c-2.348-0.035-4.63-0.268-6.978-0.303
			c-6.623-0.099-13.281-0.221-19.892-0.162c-1.84,0.014-3.57,0.623-5.349,0.961c1.758,0.261,3.366,0.653,5.305,0.757
			c5.551,0.293,11.25,0.461,16.867,0.7c5.911,0.256,7.161,1.038,3.206,1.99c-2.205,0.526-4.717,1.001-6.733,1.562
			c-2.809,0.774-1.899,1.631,2.094,2.021c2.686,0.263,5.396,0.398,8.12,0.47c-3.046,0.075-6.073,0.233-9.05,0.593
			c-4.165,0.5-4.343,1.522-0.042,1.979c4.19,0.449,8.818,0.714,13.006,1.16c3.267,0.353,6.277,0.826,9.182,1.312
			c0.952,0.155,1.901,0.261,2.848,0.345c-0.844,0.104-1.685,0.258-2.517,0.504c-1.711,0.502-1.784,1.521-0.016,1.981
			c1.722,0.444,3.624,0.705,5.344,1.156c1.342,0.348,2.581,0.825,3.772,1.307c1.752,0.71,3.455,0.589,5.347,0.155
			c3.856-0.891,7.452-2.145,11.884-2.271c1.063-0.029,2.087-0.418,3.403-0.701c-3.022-1.396-6.435-1.373-9.683-1.1
			c-3.83,0.319-7.248-0.23-10.735-0.8c-0.369-0.062-0.733-0.095-1.1-0.142c1.457-0.051,2.927-0.142,4.464-0.291
			c9.388-0.889,18.14-2.139,28.922-2.262c2.584-0.031,5.076-0.418,8.277-0.703c-7.349-1.396-15.666-1.373-23.563-1.103
			c-9.316,0.319-17.638-0.228-26.124-0.794c-1.875-0.127-3.742-0.229-5.598-0.296c4.245-0.058,8.507-0.185,12.769-0.245
			c6.914-0.096,13.896-0.016,20.833,0.043c8.865,0.068,17.721,0.238,26.585,0.258c1.522,0.006,4.094-0.498,4.313-0.826
			c0.203-0.307-1.759-0.852-3.352-0.996c-3.671-0.334-7.682-0.498-11.577-0.715c-6.907-0.391-13.89-0.73-20.714-1.176
			c-1.509-0.1-3.555-0.588-3.439-0.859c0.076-0.177,0.631-0.377,1.373-0.553c4.482,0.119,8.967,0.23,13.445,0.361
			c1.255,0.033,2.475,0.27,3.729,0.304c3.55,0.101,7.105,0.224,10.646,0.164c0.985-0.019,1.913-0.627,2.862-0.961
			c-0.94-0.263-1.803-0.651-2.84-0.757c-2.971-0.297-6.018-0.463-9.023-0.702c-0.684-0.058-1.229-0.14-1.679-0.243
			c0.02,0,0.036-0.004,0.063-0.007c-0.35-0.12-0.691-0.237-1.035-0.357c-0.535-0.364-0.264-0.844,0.937-1.382
			c0.926-0.416,1.95-0.796,2.866-1.212c4.476,0.054,8.949,0.103,13.425,0.113c1.522,0.002,4.094-0.501,4.313-0.825
			c0.203-0.305-1.759-0.855-3.352-1.001c-3.671-0.334-7.682-0.498-11.577-0.717c-2.235-0.125-4.483-0.245-6.729-0.364
			c-0.291-0.021-0.582-0.035-0.879-0.049c-4.392-0.235-8.779-0.477-13.104-0.759c-1.509-0.099-3.554-0.585-3.438-0.86
			c0.136-0.334,2.006-0.759,3.607-0.917c3.137-0.308,6.698-0.411,9.903-0.693c1.864-0.167,3.385-0.517,5.063-0.783
			c-0.357-0.125-0.716-0.245-1.07-0.369c-1.078-0.038-2.14-0.096-3.221-0.113c-4.255-0.061-8.514-0.122-12.763-0.181
			c15.29-5.502,26.237-20.125,26.237-37.304c0-19.48-14.098-35.685-32.645-38.991c5.691,5.856,9.18,13.837,9.18,22.634
			c0,17.988-14.592,32.561-32.583,32.561c-8.82,0-16.811-3.485-22.672-9.173c2.444,13.692,11.939,24.923,24.592,29.873
			c-1.236-0.019-2.477-0.035-3.713-0.054c-2.348-0.036-4.63-0.271-6.978-0.306c-6.623-0.099-13.281-0.219-19.892-0.162
			c-1.84,0.017-3.57,0.625-5.349,0.961c1.758,0.261,3.366,0.653,5.305,0.757c5.551,0.296,11.25,0.461,16.867,0.701
			c5.911,0.256,7.161,1.039,3.206,1.99c-2.205,0.526-4.717,1.003-6.733,1.561c-2.809,0.78-1.899,1.633,2.094,2.023
			c9.457,0.921,19.193,0.393,28.909,0.259c0.141-0.002,0.284,0,0.423-0.002c3.05,0.308,6.107,0.606,9.116,0.975
			c0.804,0.097,1.895,0.585,1.838,0.86C119.287,86.49,118.93,86.706,118.482,86.89z"/>
	</g>
</g>
</svg>
